<svg aria-hidden="true" style="width:0;height:0;position:absolute;overflow:hidden" xmlns="http://www.w3.org/2000/svg"><defs><symbol id="icon-arrow-left" viewBox="0 0 32 32"><path stroke-linejoin="round" stroke-linecap="round" stroke-width="2.667" d="M25.333 16H6.666M16 25.334l-9.333-9.333L16 6.668"/></symbol><symbol id="icon-arrow-right" viewBox="0 0 32 32"><path stroke-linejoin="round" stroke-linecap="round" stroke-width="2.667" d="M6.667 16h18.667M16 25.334l9.333-9.333L16 6.668"/></symbol><symbol id="icon-arrowUp2" viewBox="0 0 31 32"><path fill="#fff" style="fill:var(--color1,#fff)" stroke="#000" d="M16.283 30.28c2.859-.152 5.534-1.08 7.825-2.712a14.731 14.731 0 0 0 5.743-8.416c.177-.703.308-1.482.386-2.291.055-.579.055-1.972 0-2.551A14.72 14.72 0 0 0 16.858.93c-.579-.055-1.972-.055-2.551 0-1.917.186-3.569.648-5.23 1.466-4.1 2.02-7.053 5.874-7.924 10.339-.198 1.009-.264 1.735-.264 2.85 0 .926.025 1.312.138 2.091a14.685 14.685 0 0 0 4.849 8.956c2.369 2.078 5.244 3.309 8.409 3.604a25.84 25.84 0 0 0 1.999.044zm-1.753-2.39c-4.318-.352-8.177-3.008-10.068-6.931a12.237 12.237 0 0 1-1.188-4.321 16.072 16.072 0 0 1 0-2.105c.264-2.944 1.505-5.61 3.576-7.68 2.071-2.068 4.736-3.312 7.68-3.576a16.072 16.072 0 0 1 2.105 0 12.373 12.373 0 0 1 11.173 10.532 13.128 13.128 0 0 1 0 3.553 12.376 12.376 0 0 1-6.837 9.337 12.239 12.239 0 0 1-6.442 1.19z"/><path fill="#ff6b01" style="fill:var(--color2,#ff6b01)" stroke="#000" d="M18.259 24.355a.656.656 0 0 0 .294-.264l.051-.083.023-9.721 1.195-.011c.848-.009 1.213-.018 1.255-.039.287-.129.411-.529.257-.832-.041-.083-.984-1.232-2.705-3.3a392.633 392.633 0 0 0-2.689-3.213.563.563 0 0 0-.717 0c-.028.023-1.236 1.469-2.689 3.213-1.721 2.068-2.664 3.217-2.705 3.3-.154.303-.03.703.257.832.041.021.407.03 1.255.039l1.195.011.023 9.721.051.083a.65.65 0 0 0 .294.264l.115.055h5.125z"/></symbol><symbol id="icon-film" viewBox="0 0 32 32"><path style="stroke:var(--color1,#fff)" stroke-linejoin="round" stroke-linecap="round" stroke-width="2.667" d="M26.427 2.667H5.574a2.907 2.907 0 0 0-2.907 2.907v20.853a2.907 2.907 0 0 0 2.907 2.907h20.853a2.907 2.907 0 0 0 2.907-2.907V5.574a2.907 2.907 0 0 0-2.907-2.907zM9.333 2.667v26.667M22.667 2.667v26.667M2.667 16h26.667M2.667 9.333h6.667M2.667 22.667h6.667M22.667 22.667h6.667M22.667 9.333h6.667"/></symbol><symbol id="icon-heart" viewBox="0 0 32 32"><path fill="#ff6b08" style="fill:var(--color3,#ff6b08)" d="m16 30.144-2.24-2.218C5.44 20.639 0 15.728 0 9.708 0 4.797 3.84.995 8.8.995c2.72 0 5.44 1.267 7.2 3.327C17.76 2.263 20.48.995 23.2.995c4.96 0 8.8 3.802 8.8 8.713 0 6.02-5.44 10.931-13.76 18.218L16 30.144z"/></symbol><symbol id="icon-search-2" viewBox="0 0 32 32"><path fill="none" stroke="#fff" style="stroke:var(--color1,#fff)" stroke-linejoin="round" stroke-linecap="round" stroke-width="2.667" d="M14.667 25.333c5.891 0 10.667-4.776 10.667-10.667S20.558 3.999 14.667 3.999 4 8.775 4 14.666s4.776 10.667 10.667 10.667zM28 28.001l-5.8-5.8"/></symbol><symbol id="icon-search" viewBox="0 0 32 32"><path d="m31.008 27.231-7.58-6.447c-.784-.705-1.622-1.029-2.299-.998a11.954 11.954 0 0 0 2.87-7.787c0-6.627-5.373-12-12-12s-12 5.373-12 12 5.373 12 12 12c2.972 0 5.691-1.081 7.787-2.87-.031.677.293 1.515.998 2.299l6.447 7.58c1.104 1.226 2.907 1.33 4.007.23s.997-2.903-.23-4.007zM12 20a8 8 0 1 1 0-16 8 8 0 0 1 0 16z"/></symbol><symbol id="icon-cross" viewBox="0 0 32 32"><path d="M31.708 25.708 22 16l9.708-9.708a1 1 0 0 0 0-1.414L27.122.292a1 1 0 0 0-1.414-.001L16 9.999 6.292.291a.998.998 0 0 0-1.414.001L.292 4.878a1 1 0 0 0 0 1.414L10 16 .292 25.708a.999.999 0 0 0 0 1.414l4.586 4.586a1 1 0 0 0 1.414 0L16 22l9.708 9.708a1 1 0 0 0 1.414 0l4.586-4.586a.999.999 0 0 0 0-1.414z"/></symbol></defs></svg>